<mxfile host="www.draw.io" modified="2019-12-12T08:33:35.513Z" agent="Mozilla/5.0 (Windows NT 10.0; Win64; x64) AppleWebKit/537.36 (KHTML, like Gecko) Chrome/78.0.3904.108 Safari/537.36" etag="G6Tv9jOrDetfAUr4dMUF" version="12.3.9" type="github" pages="1">
  <diagram id="RiHDGT13wrPdX_nrTLc9" name="Page-1">
    <mxGraphModel dx="1422" dy="713" grid="1" gridSize="10" guides="1" tooltips="1" connect="1" arrows="1" fold="1" page="1" pageScale="1" pageWidth="827" pageHeight="1169" math="0" shadow="0">
      <root>
        <mxCell id="0"/>
        <mxCell id="1" parent="0"/>
        <mxCell id="93s7-yXyjFScCe6LGVZV-1" value="" style="rounded=0;whiteSpace=wrap;html=1;" parent="1" vertex="1">
          <mxGeometry x="20" y="20" width="590" height="220" as="geometry"/>
        </mxCell>
        <mxCell id="93s7-yXyjFScCe6LGVZV-29" style="edgeStyle=orthogonalEdgeStyle;rounded=0;orthogonalLoop=1;jettySize=auto;html=1;" parent="1" source="93s7-yXyjFScCe6LGVZV-2" target="93s7-yXyjFScCe6LGVZV-6" edge="1">
          <mxGeometry relative="1" as="geometry"/>
        </mxCell>
        <mxCell id="93s7-yXyjFScCe6LGVZV-32" style="edgeStyle=orthogonalEdgeStyle;rounded=0;orthogonalLoop=1;jettySize=auto;html=1;entryX=0;entryY=0.7;entryDx=0;entryDy=0;" parent="1" source="93s7-yXyjFScCe6LGVZV-2" target="93s7-yXyjFScCe6LGVZV-7" edge="1">
          <mxGeometry relative="1" as="geometry">
            <Array as="points">
              <mxPoint x="80" y="170"/>
              <mxPoint x="80" y="80"/>
              <mxPoint x="210" y="80"/>
            </Array>
          </mxGeometry>
        </mxCell>
        <mxCell id="93s7-yXyjFScCe6LGVZV-2" value="Apollo&lt;br&gt;Protal" style="whiteSpace=wrap;html=1;aspect=fixed;" parent="1" vertex="1">
          <mxGeometry x="90" y="130" width="80" height="80" as="geometry"/>
        </mxCell>
        <mxCell id="93s7-yXyjFScCe6LGVZV-26" style="edgeStyle=orthogonalEdgeStyle;rounded=0;orthogonalLoop=1;jettySize=auto;html=1;entryX=0.5;entryY=1;entryDx=0;entryDy=0;" parent="1" source="93s7-yXyjFScCe6LGVZV-5" target="93s7-yXyjFScCe6LGVZV-8" edge="1">
          <mxGeometry relative="1" as="geometry">
            <Array as="points">
              <mxPoint x="510" y="120"/>
              <mxPoint x="427" y="120"/>
            </Array>
          </mxGeometry>
        </mxCell>
        <mxCell id="93s7-yXyjFScCe6LGVZV-5" value="Apollo&lt;br&gt;ConfigService" style="whiteSpace=wrap;html=1;aspect=fixed;" parent="1" vertex="1">
          <mxGeometry x="470" y="130" width="80" height="80" as="geometry"/>
        </mxCell>
        <mxCell id="93s7-yXyjFScCe6LGVZV-21" style="edgeStyle=orthogonalEdgeStyle;rounded=0;orthogonalLoop=1;jettySize=auto;html=1;exitX=1;exitY=0.5;exitDx=0;exitDy=0;" parent="1" source="93s7-yXyjFScCe6LGVZV-6" target="93s7-yXyjFScCe6LGVZV-8" edge="1">
          <mxGeometry relative="1" as="geometry">
            <Array as="points">
              <mxPoint x="410" y="140"/>
              <mxPoint x="464" y="140"/>
            </Array>
          </mxGeometry>
        </mxCell>
        <mxCell id="93s7-yXyjFScCe6LGVZV-6" value="Apollo&lt;br&gt;AdminService" style="whiteSpace=wrap;html=1;aspect=fixed;" parent="1" vertex="1">
          <mxGeometry x="293" y="130" width="80" height="80" as="geometry"/>
        </mxCell>
        <mxCell id="93s7-yXyjFScCe6LGVZV-7" value="Apollo&lt;br&gt;ProtalDB" style="shape=cylinder;whiteSpace=wrap;html=1;boundedLbl=1;backgroundOutline=1;" parent="1" vertex="1">
          <mxGeometry x="210" y="30" width="60" height="80" as="geometry"/>
        </mxCell>
        <mxCell id="93s7-yXyjFScCe6LGVZV-8" value="Apollo&lt;br&gt;ConfigDB" style="shape=cylinder;whiteSpace=wrap;html=1;boundedLbl=1;backgroundOutline=1;" parent="1" vertex="1">
          <mxGeometry x="397" y="30" width="60" height="80" as="geometry"/>
        </mxCell>
        <mxCell id="93s7-yXyjFScCe6LGVZV-9" value="192.168.1.174" style="text;html=1;strokeColor=none;fillColor=none;align=center;verticalAlign=middle;whiteSpace=wrap;rounded=0;" parent="1" vertex="1">
          <mxGeometry x="40" y="40" width="40" height="20" as="geometry"/>
        </mxCell>
        <mxCell id="93s7-yXyjFScCe6LGVZV-10" value="" style="rounded=0;whiteSpace=wrap;html=1;" parent="1" vertex="1">
          <mxGeometry x="38" y="300" width="590" height="140" as="geometry"/>
        </mxCell>
        <mxCell id="93s7-yXyjFScCe6LGVZV-30" style="edgeStyle=orthogonalEdgeStyle;rounded=0;orthogonalLoop=1;jettySize=auto;html=1;" parent="1" source="93s7-yXyjFScCe6LGVZV-11" target="93s7-yXyjFScCe6LGVZV-13" edge="1">
          <mxGeometry relative="1" as="geometry"/>
        </mxCell>
        <mxCell id="93s7-yXyjFScCe6LGVZV-31" style="edgeStyle=orthogonalEdgeStyle;rounded=0;orthogonalLoop=1;jettySize=auto;html=1;exitX=0;exitY=0.5;exitDx=0;exitDy=0;" parent="1" source="93s7-yXyjFScCe6LGVZV-11" target="93s7-yXyjFScCe6LGVZV-7" edge="1">
          <mxGeometry relative="1" as="geometry">
            <Array as="points">
              <mxPoint x="70" y="370"/>
              <mxPoint x="70" y="80"/>
            </Array>
          </mxGeometry>
        </mxCell>
        <mxCell id="93s7-yXyjFScCe6LGVZV-11" value="Apollo&lt;br&gt;Protal" style="whiteSpace=wrap;html=1;aspect=fixed;" parent="1" vertex="1">
          <mxGeometry x="90" y="330" width="80" height="80" as="geometry"/>
        </mxCell>
        <mxCell id="93s7-yXyjFScCe6LGVZV-23" style="edgeStyle=orthogonalEdgeStyle;rounded=0;orthogonalLoop=1;jettySize=auto;html=1;exitX=0;exitY=0.5;exitDx=0;exitDy=0;" parent="1" source="93s7-yXyjFScCe6LGVZV-12" target="93s7-yXyjFScCe6LGVZV-8" edge="1">
          <mxGeometry relative="1" as="geometry">
            <mxPoint x="430" y="110" as="targetPoint"/>
          </mxGeometry>
        </mxCell>
        <mxCell id="93s7-yXyjFScCe6LGVZV-12" value="Apollo&lt;br&gt;ConfigService" style="whiteSpace=wrap;html=1;aspect=fixed;" parent="1" vertex="1">
          <mxGeometry x="470" y="330" width="80" height="80" as="geometry"/>
        </mxCell>
        <mxCell id="93s7-yXyjFScCe6LGVZV-22" style="edgeStyle=orthogonalEdgeStyle;rounded=0;orthogonalLoop=1;jettySize=auto;html=1;entryX=0.5;entryY=1;entryDx=0;entryDy=0;" parent="1" source="93s7-yXyjFScCe6LGVZV-13" target="93s7-yXyjFScCe6LGVZV-8" edge="1">
          <mxGeometry relative="1" as="geometry">
            <Array as="points">
              <mxPoint x="333" y="320"/>
              <mxPoint x="427" y="320"/>
            </Array>
          </mxGeometry>
        </mxCell>
        <mxCell id="93s7-yXyjFScCe6LGVZV-13" value="Apollo&lt;br&gt;AdminService" style="whiteSpace=wrap;html=1;aspect=fixed;" parent="1" vertex="1">
          <mxGeometry x="293" y="330" width="80" height="80" as="geometry"/>
        </mxCell>
        <mxCell id="93s7-yXyjFScCe6LGVZV-14" value="192.168.46.134" style="text;html=1;strokeColor=none;fillColor=none;align=center;verticalAlign=middle;whiteSpace=wrap;rounded=0;" parent="1" vertex="1">
          <mxGeometry x="40" y="310" width="40" height="20" as="geometry"/>
        </mxCell>
        <mxCell id="93s7-yXyjFScCe6LGVZV-15" value="" style="endArrow=classic;startArrow=classic;html=1;entryX=0.5;entryY=1;entryDx=0;entryDy=0;" parent="1" source="93s7-yXyjFScCe6LGVZV-12" target="93s7-yXyjFScCe6LGVZV-5" edge="1">
          <mxGeometry width="50" height="50" relative="1" as="geometry">
            <mxPoint x="345" y="260" as="sourcePoint"/>
            <mxPoint x="395" y="200" as="targetPoint"/>
          </mxGeometry>
        </mxCell>
        <mxCell id="93s7-yXyjFScCe6LGVZV-18" value="相互注册" style="text;html=1;align=center;verticalAlign=middle;resizable=0;points=[];;labelBackgroundColor=#ffffff;" parent="93s7-yXyjFScCe6LGVZV-15" vertex="1" connectable="0">
          <mxGeometry x="-0.1846" relative="1" as="geometry">
            <mxPoint as="offset"/>
          </mxGeometry>
        </mxCell>
        <mxCell id="93s7-yXyjFScCe6LGVZV-34" style="edgeStyle=orthogonalEdgeStyle;rounded=0;orthogonalLoop=1;jettySize=auto;html=1;exitX=0.5;exitY=0;exitDx=0;exitDy=0;" parent="1" source="93s7-yXyjFScCe6LGVZV-33" target="93s7-yXyjFScCe6LGVZV-5" edge="1">
          <mxGeometry relative="1" as="geometry"/>
        </mxCell>
        <mxCell id="93s7-yXyjFScCe6LGVZV-36" value="apollo.meta=http://192.168.1.174:8080" style="text;html=1;align=center;verticalAlign=middle;resizable=0;points=[];;labelBackgroundColor=#ffffff;" parent="93s7-yXyjFScCe6LGVZV-34" vertex="1" connectable="0">
          <mxGeometry x="-0.1083" y="-3" relative="1" as="geometry">
            <mxPoint as="offset"/>
          </mxGeometry>
        </mxCell>
        <mxCell id="93s7-yXyjFScCe6LGVZV-35" style="edgeStyle=orthogonalEdgeStyle;rounded=0;orthogonalLoop=1;jettySize=auto;html=1;exitX=0.5;exitY=1;exitDx=0;exitDy=0;entryX=1.013;entryY=0.613;entryDx=0;entryDy=0;entryPerimeter=0;" parent="1" source="93s7-yXyjFScCe6LGVZV-33" target="93s7-yXyjFScCe6LGVZV-12" edge="1">
          <mxGeometry relative="1" as="geometry"/>
        </mxCell>
        <mxCell id="93s7-yXyjFScCe6LGVZV-37" value="apollo.mate=http://192.168.46.134:8080" style="text;html=1;align=center;verticalAlign=middle;resizable=0;points=[];;labelBackgroundColor=#ffffff;" parent="93s7-yXyjFScCe6LGVZV-35" vertex="1" connectable="0">
          <mxGeometry x="-0.3958" y="-51" relative="1" as="geometry">
            <mxPoint as="offset"/>
          </mxGeometry>
        </mxCell>
        <mxCell id="93s7-yXyjFScCe6LGVZV-33" value="EurekaServer" style="ellipse;whiteSpace=wrap;html=1;" parent="1" vertex="1">
          <mxGeometry x="690" y="210" width="120" height="80" as="geometry"/>
        </mxCell>
        <mxCell id="93s7-yXyjFScCe6LGVZV-38" value="&lt;h1&gt;测试&lt;/h1&gt;&lt;p&gt;①134的ApolloConfigService下线（其余正常），通过134的Protal修改配置，EurekaServer可以实时获取更新的配置；&lt;/p&gt;&lt;p&gt;②134的ApolloAdminService下线（其余正常），通过134的Protal修改配置，EurekaServer可以实时获取更新的配置；&lt;/p&gt;&lt;p&gt;③134的ApolloAdminService、ApolloAdminService下线（其余正常），通过134的Protal修改配置，EurekaServer可以实时获取更新的配置；&lt;br&gt;&lt;/p&gt;&lt;p&gt;④134的ApolloProtal下线(其余正常)，通过174的Protal修改配置，EurekaServer可以实时获取更新的配置。&lt;/p&gt;" style="text;html=1;strokeColor=none;fillColor=none;spacing=5;spacingTop=-20;whiteSpace=wrap;overflow=hidden;rounded=0;" parent="1" vertex="1">
          <mxGeometry x="20" y="460" width="790" height="150" as="geometry"/>
        </mxCell>
        <mxCell id="93s7-yXyjFScCe6LGVZV-43" value="" style="endArrow=classic;html=1;entryX=0;entryY=0.5;entryDx=0;entryDy=0;" parent="1" target="93s7-yXyjFScCe6LGVZV-6" edge="1">
          <mxGeometry width="50" height="50" relative="1" as="geometry">
            <mxPoint x="170" y="370" as="sourcePoint"/>
            <mxPoint x="220" y="320" as="targetPoint"/>
          </mxGeometry>
        </mxCell>
        <mxCell id="93s7-yXyjFScCe6LGVZV-44" value="" style="endArrow=classic;html=1;exitX=1;exitY=0.5;exitDx=0;exitDy=0;entryX=0;entryY=0.5;entryDx=0;entryDy=0;" parent="1" source="93s7-yXyjFScCe6LGVZV-2" target="93s7-yXyjFScCe6LGVZV-13" edge="1">
          <mxGeometry width="50" height="50" relative="1" as="geometry">
            <mxPoint x="145" y="300" as="sourcePoint"/>
            <mxPoint x="275.39999999999986" y="140" as="targetPoint"/>
          </mxGeometry>
        </mxCell>
      </root>
    </mxGraphModel>
  </diagram>
</mxfile>
